<mxfile host="app.diagrams.net" modified="2021-09-22T17:43:32.766Z" agent="5.0 (Windows NT 10.0; Win64; x64) AppleWebKit/537.36 (KHTML, like Gecko) Chrome/93.0.4577.82 Safari/537.36" etag="0aFMYn0x8H4cQ1jxdWsC" version="14.8.2" type="github">
  <diagram id="DdryZCAlk3Ttl0p2uT7I" name="Page-1">
    <mxGraphModel dx="1655" dy="600" grid="0" gridSize="10" guides="0" tooltips="1" connect="1" arrows="1" fold="1" page="0" pageScale="1" pageWidth="827" pageHeight="1169" math="0" shadow="0">
      <root>
        <mxCell id="0" />
        <mxCell id="1" parent="0" />
        <mxCell id="evP3hjp9oQl2P7tkNX2_-79" value="" style="rounded=1;whiteSpace=wrap;html=1;fontColor=#82B366;fillColor=none;dashed=1;strokeWidth=4;strokeColor=#F8CECC;" vertex="1" parent="1">
          <mxGeometry x="340" y="60" width="560" height="235" as="geometry" />
        </mxCell>
        <mxCell id="evP3hjp9oQl2P7tkNX2_-63" value="" style="rounded=1;whiteSpace=wrap;html=1;fontColor=#82B366;fillColor=none;dashed=1;strokeWidth=4;strokeColor=#F8CECC;" vertex="1" parent="1">
          <mxGeometry x="340" y="328" width="560" height="235" as="geometry" />
        </mxCell>
        <mxCell id="evP3hjp9oQl2P7tkNX2_-31" value="&lt;span&gt;Pacheco - Active Directory&lt;/span&gt;" style="ellipse;whiteSpace=wrap;html=1;aspect=fixed;strokeColor=#6c8ebf;dashed=1;strokeWidth=2;fillColor=none;" vertex="1" parent="1">
          <mxGeometry x="710" y="360.5" width="160" height="160" as="geometry" />
        </mxCell>
        <mxCell id="evP3hjp9oQl2P7tkNX2_-39" value="Radius" style="edgeStyle=orthogonalEdgeStyle;rounded=0;orthogonalLoop=1;jettySize=auto;html=1;" edge="1" parent="1" source="evP3hjp9oQl2P7tkNX2_-2" target="evP3hjp9oQl2P7tkNX2_-34">
          <mxGeometry relative="1" as="geometry" />
        </mxCell>
        <mxCell id="evP3hjp9oQl2P7tkNX2_-2" value="FW Checkpoint" style="image;html=1;image=img/lib/clip_art/networking/Firewall_02_128x128.png" vertex="1" parent="1">
          <mxGeometry x="355.22" y="128" width="80" height="80" as="geometry" />
        </mxCell>
        <mxCell id="evP3hjp9oQl2P7tkNX2_-40" value="Radius" style="edgeStyle=orthogonalEdgeStyle;rounded=0;orthogonalLoop=1;jettySize=auto;html=1;" edge="1" parent="1" source="evP3hjp9oQl2P7tkNX2_-3" target="evP3hjp9oQl2P7tkNX2_-35">
          <mxGeometry relative="1" as="geometry" />
        </mxCell>
        <mxCell id="evP3hjp9oQl2P7tkNX2_-3" value="Fw Checkpoint" style="image;html=1;image=img/lib/clip_art/networking/Firewall_02_128x128.png" vertex="1" parent="1">
          <mxGeometry x="350" y="390" width="80" height="80" as="geometry" />
        </mxCell>
        <mxCell id="evP3hjp9oQl2P7tkNX2_-30" value="" style="edgeStyle=orthogonalEdgeStyle;rounded=0;orthogonalLoop=1;jettySize=auto;html=1;strokeColor=#007FFF;" edge="1" parent="1" target="evP3hjp9oQl2P7tkNX2_-27">
          <mxGeometry relative="1" as="geometry">
            <mxPoint x="680" y="109" as="sourcePoint" />
            <Array as="points">
              <mxPoint x="690" y="109" />
              <mxPoint x="690" y="159" />
            </Array>
          </mxGeometry>
        </mxCell>
        <mxCell id="evP3hjp9oQl2P7tkNX2_-4" value="" style="aspect=fixed;perimeter=ellipsePerimeter;html=1;align=center;shadow=0;dashed=0;spacingTop=3;image;image=img/lib/active_directory/generic_server.svg;" vertex="1" parent="1">
          <mxGeometry x="630" y="90" width="28.000000000000004" height="50" as="geometry" />
        </mxCell>
        <mxCell id="evP3hjp9oQl2P7tkNX2_-37" style="edgeStyle=orthogonalEdgeStyle;rounded=0;orthogonalLoop=1;jettySize=auto;html=1;exitX=1;exitY=0.25;exitDx=0;exitDy=0;" edge="1" parent="1" source="evP3hjp9oQl2P7tkNX2_-8" target="evP3hjp9oQl2P7tkNX2_-2">
          <mxGeometry relative="1" as="geometry">
            <Array as="points">
              <mxPoint x="330" y="237" />
              <mxPoint x="330" y="168" />
            </Array>
          </mxGeometry>
        </mxCell>
        <mxCell id="evP3hjp9oQl2P7tkNX2_-38" style="edgeStyle=orthogonalEdgeStyle;rounded=0;orthogonalLoop=1;jettySize=auto;html=1;exitX=1;exitY=1;exitDx=0;exitDy=0;entryX=0;entryY=0.5;entryDx=0;entryDy=0;" edge="1" parent="1" source="evP3hjp9oQl2P7tkNX2_-8" target="evP3hjp9oQl2P7tkNX2_-3">
          <mxGeometry relative="1" as="geometry">
            <Array as="points">
              <mxPoint x="330" y="335" />
              <mxPoint x="330" y="430" />
            </Array>
          </mxGeometry>
        </mxCell>
        <mxCell id="evP3hjp9oQl2P7tkNX2_-8" value="Internet" style="aspect=fixed;perimeter=ellipsePerimeter;html=1;align=center;shadow=0;dashed=0;spacingTop=3;image;image=img/lib/active_directory/internet_cloud.svg;" vertex="1" parent="1">
          <mxGeometry x="47.5" y="189" width="272.22" height="171.5" as="geometry" />
        </mxCell>
        <mxCell id="evP3hjp9oQl2P7tkNX2_-9" value="" style="verticalLabelPosition=bottom;html=1;verticalAlign=top;align=center;strokeColor=none;fillColor=#00BEF2;shape=mxgraph.azure.mobile;pointerEvents=1;" vertex="1" parent="1">
          <mxGeometry x="-180" y="390" width="35" height="50" as="geometry" />
        </mxCell>
        <mxCell id="evP3hjp9oQl2P7tkNX2_-10" value="" style="verticalLabelPosition=bottom;html=1;verticalAlign=top;align=center;strokeColor=none;fillColor=#00BEF2;shape=mxgraph.azure.user;" vertex="1" parent="1">
          <mxGeometry x="-130" y="480" width="47.5" height="50" as="geometry" />
        </mxCell>
        <mxCell id="evP3hjp9oQl2P7tkNX2_-51" style="edgeStyle=orthogonalEdgeStyle;rounded=0;orthogonalLoop=1;jettySize=auto;html=1;fontColor=#007FFF;endArrow=block;endFill=1;" edge="1" parent="1" source="evP3hjp9oQl2P7tkNX2_-12">
          <mxGeometry relative="1" as="geometry">
            <mxPoint x="50" y="283" as="targetPoint" />
            <Array as="points">
              <mxPoint x="20" y="415" />
              <mxPoint x="20" y="283" />
            </Array>
          </mxGeometry>
        </mxCell>
        <mxCell id="evP3hjp9oQl2P7tkNX2_-12" value="VPN Client" style="aspect=fixed;perimeter=ellipsePerimeter;html=1;align=center;shadow=0;dashed=0;spacingTop=3;image;image=img/lib/active_directory/vista_client.svg;" vertex="1" parent="1">
          <mxGeometry x="-52.5" y="375" width="60.8" height="80" as="geometry" />
        </mxCell>
        <mxCell id="evP3hjp9oQl2P7tkNX2_-13" value="" style="aspect=fixed;perimeter=ellipsePerimeter;html=1;align=center;shadow=0;dashed=0;spacingTop=3;image;image=img/lib/active_directory/windows_server_2.svg;" vertex="1" parent="1">
          <mxGeometry x="760" y="100" width="40" height="50" as="geometry" />
        </mxCell>
        <mxCell id="evP3hjp9oQl2P7tkNX2_-15" value="" style="aspect=fixed;perimeter=ellipsePerimeter;html=1;align=center;shadow=0;dashed=0;spacingTop=3;image;image=img/lib/active_directory/windows_server_2.svg;" vertex="1" parent="1">
          <mxGeometry x="760" y="450.5" width="40" height="50" as="geometry" />
        </mxCell>
        <mxCell id="evP3hjp9oQl2P7tkNX2_-28" style="edgeStyle=orthogonalEdgeStyle;rounded=0;orthogonalLoop=1;jettySize=auto;html=1;exitX=0;exitY=0.5;exitDx=0;exitDy=0;" edge="1" parent="1" source="evP3hjp9oQl2P7tkNX2_-17">
          <mxGeometry relative="1" as="geometry">
            <mxPoint x="640" y="205" as="targetPoint" />
          </mxGeometry>
        </mxCell>
        <mxCell id="evP3hjp9oQl2P7tkNX2_-29" value="" style="edgeStyle=orthogonalEdgeStyle;rounded=0;orthogonalLoop=1;jettySize=auto;html=1;strokeColor=#007FFF;" edge="1" parent="1" target="evP3hjp9oQl2P7tkNX2_-27">
          <mxGeometry relative="1" as="geometry">
            <mxPoint x="680" y="205" as="sourcePoint" />
            <Array as="points">
              <mxPoint x="690" y="205" />
              <mxPoint x="690" y="159" />
            </Array>
          </mxGeometry>
        </mxCell>
        <mxCell id="evP3hjp9oQl2P7tkNX2_-17" value="" style="aspect=fixed;perimeter=ellipsePerimeter;html=1;align=center;shadow=0;dashed=0;spacingTop=3;image;image=img/lib/active_directory/generic_server.svg;" vertex="1" parent="1">
          <mxGeometry x="630" y="169" width="28.000000000000004" height="50" as="geometry" />
        </mxCell>
        <mxCell id="evP3hjp9oQl2P7tkNX2_-18" value="" style="aspect=fixed;perimeter=ellipsePerimeter;html=1;align=center;shadow=0;dashed=0;spacingTop=3;image;image=img/lib/active_directory/windows_server_2.svg;" vertex="1" parent="1">
          <mxGeometry x="760" y="381" width="40" height="50" as="geometry" />
        </mxCell>
        <mxCell id="evP3hjp9oQl2P7tkNX2_-19" value="" style="aspect=fixed;perimeter=ellipsePerimeter;html=1;align=center;shadow=0;dashed=0;spacingTop=3;image;image=img/lib/active_directory/windows_server_2.svg;" vertex="1" parent="1">
          <mxGeometry x="750" y="167.5" width="50" height="62.5" as="geometry" />
        </mxCell>
        <mxCell id="evP3hjp9oQl2P7tkNX2_-32" value="" style="edgeStyle=orthogonalEdgeStyle;rounded=0;orthogonalLoop=1;jettySize=auto;html=1;exitX=0.5;exitY=0;exitDx=0;exitDy=0;strokeColor=#007FFF;" edge="1" parent="1" source="evP3hjp9oQl2P7tkNX2_-42">
          <mxGeometry relative="1" as="geometry">
            <mxPoint x="710" y="446" as="targetPoint" />
          </mxGeometry>
        </mxCell>
        <mxCell id="evP3hjp9oQl2P7tkNX2_-20" value="" style="aspect=fixed;perimeter=ellipsePerimeter;html=1;align=center;shadow=0;dashed=0;spacingTop=3;image;image=img/lib/active_directory/generic_server.svg;" vertex="1" parent="1">
          <mxGeometry x="632" y="415.5" width="28.000000000000004" height="50" as="geometry" />
        </mxCell>
        <mxCell id="evP3hjp9oQl2P7tkNX2_-27" value="Sede - Active Directory" style="ellipse;whiteSpace=wrap;html=1;aspect=fixed;strokeColor=#6c8ebf;fillColor=none;dashed=1;strokeWidth=2;" vertex="1" parent="1">
          <mxGeometry x="700" y="79" width="160" height="160" as="geometry" />
        </mxCell>
        <mxCell id="evP3hjp9oQl2P7tkNX2_-53" value="Primary" style="edgeStyle=orthogonalEdgeStyle;rounded=0;orthogonalLoop=1;jettySize=auto;html=1;startArrow=none;startFill=0;endArrow=blockThin;endFill=1;fillColor=#d5e8d4;strokeColor=#82b366;fontColor=#82B366;entryX=0.269;entryY=0.996;entryDx=0;entryDy=0;entryPerimeter=0;" edge="1" parent="1" source="evP3hjp9oQl2P7tkNX2_-34" target="evP3hjp9oQl2P7tkNX2_-44">
          <mxGeometry relative="1" as="geometry">
            <mxPoint x="612" y="118" as="targetPoint" />
            <Array as="points">
              <mxPoint x="580" y="168" />
              <mxPoint x="580" y="121" />
            </Array>
          </mxGeometry>
        </mxCell>
        <mxCell id="evP3hjp9oQl2P7tkNX2_-54" style="edgeStyle=orthogonalEdgeStyle;rounded=0;orthogonalLoop=1;jettySize=auto;html=1;fontColor=#82B366;startArrow=none;startFill=0;endArrow=blockThin;endFill=1;entryX=0.204;entryY=1;entryDx=0;entryDy=0;entryPerimeter=0;strokeColor=#FF0000;" edge="1" parent="1">
          <mxGeometry relative="1" as="geometry">
            <mxPoint x="538" y="177" as="sourcePoint" />
            <mxPoint x="614" y="418.98" as="targetPoint" />
            <Array as="points">
              <mxPoint x="590" y="177" />
              <mxPoint x="590" y="419" />
            </Array>
          </mxGeometry>
        </mxCell>
        <mxCell id="evP3hjp9oQl2P7tkNX2_-55" value="Backup" style="edgeLabel;html=1;align=center;verticalAlign=middle;resizable=0;points=[];fontColor=#FF0000;" vertex="1" connectable="0" parent="evP3hjp9oQl2P7tkNX2_-54">
          <mxGeometry x="-0.3124" y="1" relative="1" as="geometry">
            <mxPoint x="-1" y="41" as="offset" />
          </mxGeometry>
        </mxCell>
        <mxCell id="evP3hjp9oQl2P7tkNX2_-34" value="" style="shape=mxgraph.cisco.servers.fileserver;html=1;pointerEvents=1;dashed=0;fillColor=#036897;strokeColor=#ffffff;strokeWidth=2;verticalLabelPosition=bottom;verticalAlign=top;align=center;outlineConnect=0;" vertex="1" parent="1">
          <mxGeometry x="495" y="137" width="43" height="62" as="geometry" />
        </mxCell>
        <mxCell id="evP3hjp9oQl2P7tkNX2_-58" style="edgeStyle=orthogonalEdgeStyle;rounded=0;orthogonalLoop=1;jettySize=auto;html=1;entryX=0.75;entryY=1;entryDx=0;entryDy=0;fontColor=#FF0000;startArrow=none;startFill=0;endArrow=blockThin;endFill=1;strokeColor=#FF0000;" edge="1" parent="1">
          <mxGeometry relative="1" as="geometry">
            <mxPoint x="535" y="418" as="sourcePoint" />
            <mxPoint x="609" y="188.5" as="targetPoint" />
            <Array as="points">
              <mxPoint x="559" y="418" />
              <mxPoint x="559" y="189" />
            </Array>
          </mxGeometry>
        </mxCell>
        <mxCell id="evP3hjp9oQl2P7tkNX2_-61" value="Backup" style="edgeLabel;html=1;align=center;verticalAlign=middle;resizable=0;points=[];fontColor=#FF0000;" vertex="1" connectable="0" parent="evP3hjp9oQl2P7tkNX2_-58">
          <mxGeometry x="-0.1565" y="2" relative="1" as="geometry">
            <mxPoint as="offset" />
          </mxGeometry>
        </mxCell>
        <mxCell id="evP3hjp9oQl2P7tkNX2_-60" value="Primary" style="edgeStyle=orthogonalEdgeStyle;rounded=0;orthogonalLoop=1;jettySize=auto;html=1;exitX=1;exitY=0.5;exitDx=0;exitDy=0;exitPerimeter=0;entryX=0.75;entryY=1;entryDx=0;entryDy=0;startArrow=none;startFill=0;endArrow=blockThin;endFill=1;strokeColor=#82B366;fontColor=#82B366;" edge="1" parent="1">
          <mxGeometry x="-0.2713" relative="1" as="geometry">
            <mxPoint x="537" y="429" as="sourcePoint" />
            <mxPoint x="615" y="474.5" as="targetPoint" />
            <Array as="points">
              <mxPoint x="561" y="429" />
              <mxPoint x="561" y="475" />
            </Array>
            <mxPoint as="offset" />
          </mxGeometry>
        </mxCell>
        <mxCell id="evP3hjp9oQl2P7tkNX2_-35" value="" style="shape=mxgraph.cisco.servers.fileserver;html=1;pointerEvents=1;dashed=0;fillColor=#036897;strokeColor=#ffffff;strokeWidth=2;verticalLabelPosition=bottom;verticalAlign=top;align=center;outlineConnect=0;" vertex="1" parent="1">
          <mxGeometry x="493" y="399" width="43" height="62" as="geometry" />
        </mxCell>
        <mxCell id="evP3hjp9oQl2P7tkNX2_-71" style="edgeStyle=orthogonalEdgeStyle;rounded=0;orthogonalLoop=1;jettySize=auto;html=1;entryX=0.8;entryY=0.19;entryDx=0;entryDy=0;entryPerimeter=0;fontColor=#F8CECC;startArrow=classic;startFill=1;endArrow=classic;endFill=1;strokeColor=#007FFF;" edge="1" parent="1" source="evP3hjp9oQl2P7tkNX2_-42" target="evP3hjp9oQl2P7tkNX2_-49">
          <mxGeometry relative="1" as="geometry">
            <Array as="points">
              <mxPoint x="644" y="570" />
              <mxPoint x="910" y="570" />
              <mxPoint x="910" y="17" />
            </Array>
          </mxGeometry>
        </mxCell>
        <mxCell id="evP3hjp9oQl2P7tkNX2_-42" value="" style="rounded=1;whiteSpace=wrap;html=1;rotation=90;strokeWidth=2;dashed=1;strokeColor=#6c8ebf;fillColor=none;" vertex="1" parent="1">
          <mxGeometry x="584" y="415.5" width="120" height="60" as="geometry" />
        </mxCell>
        <mxCell id="evP3hjp9oQl2P7tkNX2_-48" style="edgeStyle=orthogonalEdgeStyle;rounded=0;orthogonalLoop=1;jettySize=auto;html=1;exitX=0;exitY=0.5;exitDx=0;exitDy=0;fontColor=#007FFF;entryX=0.89;entryY=0.5;entryDx=0;entryDy=0;entryPerimeter=0;startArrow=classic;startFill=1;strokeColor=#007FFF;" edge="1" parent="1" source="evP3hjp9oQl2P7tkNX2_-44" target="evP3hjp9oQl2P7tkNX2_-49">
          <mxGeometry relative="1" as="geometry">
            <mxPoint x="570" y="30" as="targetPoint" />
          </mxGeometry>
        </mxCell>
        <mxCell id="evP3hjp9oQl2P7tkNX2_-44" value="" style="rounded=1;whiteSpace=wrap;html=1;rotation=90;strokeWidth=2;dashed=1;strokeColor=#6c8ebf;fillColor=none;" vertex="1" parent="1">
          <mxGeometry x="562" y="128" width="160" height="60" as="geometry" />
        </mxCell>
        <mxCell id="evP3hjp9oQl2P7tkNX2_-50" value="Secondary &lt;br&gt;Authentication" style="edgeStyle=orthogonalEdgeStyle;rounded=0;orthogonalLoop=1;jettySize=auto;html=1;fontColor=#007FFF;startArrow=classic;startFill=1;strokeColor=#007FFF;" edge="1" parent="1" source="evP3hjp9oQl2P7tkNX2_-49">
          <mxGeometry x="0.1533" relative="1" as="geometry">
            <mxPoint x="-160" y="380" as="targetPoint" />
            <mxPoint as="offset" />
          </mxGeometry>
        </mxCell>
        <mxCell id="evP3hjp9oQl2P7tkNX2_-49" value="Azure MFA" style="verticalLabelPosition=bottom;html=1;verticalAlign=top;align=center;strokeColor=none;fillColor=#00BEF2;shape=mxgraph.azure.cloud;fontColor=#007FFF;" vertex="1" parent="1">
          <mxGeometry x="190" width="140" height="90" as="geometry" />
        </mxCell>
        <mxCell id="evP3hjp9oQl2P7tkNX2_-56" style="edgeStyle=orthogonalEdgeStyle;rounded=0;orthogonalLoop=1;jettySize=auto;html=1;exitX=1;exitY=0.5;exitDx=0;exitDy=0;exitPerimeter=0;fontColor=#FF0000;startArrow=none;startFill=0;endArrow=blockThin;endFill=1;strokeColor=#FF0000;" edge="1" parent="1" source="evP3hjp9oQl2P7tkNX2_-34">
          <mxGeometry relative="1" as="geometry">
            <mxPoint x="538" y="168" as="targetPoint" />
          </mxGeometry>
        </mxCell>
        <mxCell id="evP3hjp9oQl2P7tkNX2_-68" value="Pacheco" style="text;html=1;strokeColor=none;fillColor=none;align=center;verticalAlign=middle;whiteSpace=wrap;rounded=0;dashed=1;fontColor=#F8CECC;" vertex="1" parent="1">
          <mxGeometry x="830" y="530" width="40" height="20" as="geometry" />
        </mxCell>
        <mxCell id="evP3hjp9oQl2P7tkNX2_-69" value="Sede" style="text;html=1;strokeColor=none;fillColor=none;align=center;verticalAlign=middle;whiteSpace=wrap;rounded=0;dashed=1;fontColor=#F8CECC;" vertex="1" parent="1">
          <mxGeometry x="828" y="270" width="40" height="20" as="geometry" />
        </mxCell>
        <mxCell id="evP3hjp9oQl2P7tkNX2_-73" value="CCC_NPS_Azure_MFA" style="text;html=1;strokeColor=none;fillColor=none;align=center;verticalAlign=middle;whiteSpace=wrap;rounded=0;dashed=1;fontColor=#007FFF;" vertex="1" parent="1">
          <mxGeometry x="635" y="359" width="40" height="20" as="geometry" />
        </mxCell>
        <mxCell id="evP3hjp9oQl2P7tkNX2_-75" value="MAIN_NPS_Azure_MFA" style="text;html=1;strokeColor=none;fillColor=none;align=center;verticalAlign=middle;whiteSpace=wrap;rounded=0;dashed=1;fontColor=#007FFF;" vertex="1" parent="1">
          <mxGeometry x="632" y="239" width="40" height="20" as="geometry" />
        </mxCell>
        <mxCell id="evP3hjp9oQl2P7tkNX2_-76" value="&lt;font color=&quot;#0000ff&quot;&gt;10.1.40.102&lt;/font&gt;" style="text;html=1;strokeColor=none;fillColor=none;align=center;verticalAlign=middle;whiteSpace=wrap;rounded=0;dashed=1;fontColor=#007FFF;fontSize=10;" vertex="1" parent="1">
          <mxGeometry x="620" y="137" width="40" height="20" as="geometry" />
        </mxCell>
        <mxCell id="evP3hjp9oQl2P7tkNX2_-77" value="&lt;font color=&quot;#0000ff&quot;&gt;10.1.40.103&lt;/font&gt;" style="text;html=1;strokeColor=none;fillColor=none;align=center;verticalAlign=middle;whiteSpace=wrap;rounded=0;dashed=1;fontColor=#007FFF;fontSize=10;" vertex="1" parent="1">
          <mxGeometry x="620" y="219" width="40" height="20" as="geometry" />
        </mxCell>
        <mxCell id="evP3hjp9oQl2P7tkNX2_-78" value="&lt;font color=&quot;#0000ff&quot;&gt;10.10.20.102&lt;/font&gt;" style="text;html=1;strokeColor=none;fillColor=none;align=center;verticalAlign=middle;whiteSpace=wrap;rounded=0;dashed=1;fontColor=#007FFF;fontSize=10;" vertex="1" parent="1">
          <mxGeometry x="622" y="466" width="40" height="20" as="geometry" />
        </mxCell>
        <mxCell id="evP3hjp9oQl2P7tkNX2_-80" value="&lt;span style=&quot;color: rgb(0 , 127 , 255) ; font-family: &amp;quot;helvetica&amp;quot; ; font-size: 11px ; font-style: normal ; font-weight: 400 ; letter-spacing: normal ; text-indent: 0px ; text-transform: none ; word-spacing: 0px ; background-color: rgb(255 , 255 , 255) ; display: inline ; float: none&quot;&gt;Secondary&lt;/span&gt;&lt;br style=&quot;color: rgb(0 , 127 , 255) ; font-family: &amp;quot;helvetica&amp;quot; ; font-size: 11px ; font-style: normal ; font-weight: 400 ; letter-spacing: normal ; text-indent: 0px ; text-transform: none ; word-spacing: 0px&quot;&gt;&lt;div&gt;&lt;span style=&quot;font-family: &amp;quot;helvetica&amp;quot; ; font-size: 11px&quot;&gt;Authentication&lt;/span&gt;&lt;/div&gt;" style="text;whiteSpace=wrap;html=1;fontSize=10;fontColor=#007FFF;align=left;" vertex="1" parent="1">
          <mxGeometry x="909" y="285" width="90" height="40" as="geometry" />
        </mxCell>
        <mxCell id="evP3hjp9oQl2P7tkNX2_-82" value="&lt;span style=&quot;color: rgb(0, 127, 255); font-family: helvetica; font-size: 11px; font-style: normal; font-weight: 400; letter-spacing: normal; text-indent: 0px; text-transform: none; word-spacing: 0px; background-color: rgb(255, 255, 255); display: inline; float: none;&quot;&gt;Secondary&lt;/span&gt;&lt;br style=&quot;color: rgb(0, 127, 255); font-family: helvetica; font-size: 11px; font-style: normal; font-weight: 400; letter-spacing: normal; text-indent: 0px; text-transform: none; word-spacing: 0px;&quot;&gt;&lt;span style=&quot;color: rgb(0, 127, 255); font-family: helvetica; font-size: 11px; font-style: normal; font-weight: 400; letter-spacing: normal; text-indent: 0px; text-transform: none; word-spacing: 0px; background-color: rgb(255, 255, 255); display: inline; float: none;&quot;&gt;Authentication&lt;/span&gt;" style="text;whiteSpace=wrap;html=1;fontSize=10;fontColor=#007FFF;align=center;" vertex="1" parent="1">
          <mxGeometry x="460" y="25" width="90" height="40" as="geometry" />
        </mxCell>
        <mxCell id="evP3hjp9oQl2P7tkNX2_-84" value="&lt;span style=&quot;color: rgb(0, 127, 255); font-family: helvetica; font-size: 11px; font-style: normal; font-weight: 400; letter-spacing: normal; text-indent: 0px; text-transform: none; word-spacing: 0px; background-color: rgb(255, 255, 255); display: inline; float: none;&quot;&gt;Autorization Code&lt;/span&gt;" style="text;whiteSpace=wrap;html=1;fontSize=10;fontColor=#007FFF;align=center;" vertex="1" parent="1">
          <mxGeometry x="-207.9966666666665" y="440.9966666666667" width="89" height="40" as="geometry" />
        </mxCell>
      </root>
    </mxGraphModel>
  </diagram>
</mxfile>
